<svg xmlns="http://www.w3.org/2000/svg" x="0px" y="0px" width="32" height="32" viewBox="0 0 50 50">
    <path fill="#dc2626" d="M 25 2 C 17.969 2 11.679937 5.1579062 7.4609375 10.128906 C 8.1039375 10.154906 8.6328125 10.302734 8.6328125 10.302734 C 13.999813 11.666734 14 17.249 14 19 L 9 19 C 9 19 9 15 6.5 15 C 5.939 15 5.522125 15.209703 5.203125 15.470703 C 5.063125 15.585703 4.7494688 15.957531 4.6054688 16.519531 C 4.3184688 17.647531 4.333 19.574 6.5 21.5 C 9.348 24.031 15 26.375 15 32.375 C 15 37.031 11.699703 39.512688 8.8457031 39.929688 C 8.8457031 39.929688 8.410375 40.012734 7.609375 40.052734 C 11.827375 44.920734 18.054 48 25 48 C 31.989 48 38.242938 44.875078 42.460938 39.955078 C 37.742937 39.486078 34 32.98 34 25 C 34 17.02 37.742938 10.513922 42.460938 10.044922 C 38.242937 5.1249219 31.989 2 25 2 z M 17 11 L 22 11 L 22 22.5 L 27 22.5 L 27 11 L 32 11 L 32 40 L 27 40 L 27 27.5 L 22 27.5 L 22 40 L 17 40 L 17 11 z M 43.5 15 A 4.5 10 0 0 0 39 25 A 4.5 10 0 0 0 43.5 35 A 4.5 10 0 0 0 48 25 A 4.5 10 0 0 0 43.5 15 z M 2.0117188 23.5 C 2.0117188 23.5 1.9448437 28.226 2.7148438 30.5 C 3.8578437 33.875 5.1421563 35 7.2851562 35 C 8.8561562 35 10 34 10 31.875 C 10 29.497 7.052625 28.086875 5.015625 26.546875 C 3.092625 25.093875 2.0117188 23.5 2.0117188 23.5 z"></path>
</svg>
